<?xml version="1.0" standalone="no"?>
<!DOCTYPE svg PUBLIC "-//W3C//DTD SVG 20010904//EN"
 "http://www.w3.org/TR/2001/REC-SVG-20010904/DTD/svg10.dtd">
<svg version="1.0" xmlns="http://www.w3.org/2000/svg"
 width="276.000000pt" height="102.000000pt" viewBox="0 0 276.000000 102.000000"
 preserveAspectRatio="xMidYMid meet">
<metadata>
Created by potrace 1.16, written by Peter Selinger 2001-2019
</metadata>
<g transform="translate(0.000000,102.000000) scale(0.100000,-0.100000)"
fill="currentColor" stroke="none">
<path d="M585 1010 c3 -5 -28 -13 -67 -19 -159 -25 -198 -34 -209 -47 -9 -11
-9 -17 0 -28 17 -20 -94 -109 -126 -101 -26 6 -39 -10 -24 -29 8 -10 5 -16
-14 -24 -31 -14 -77 -83 -81 -122 -2 -16 -13 -64 -25 -107 -39 -140 -37 -230
6 -281 28 -34 142 -73 154 -54 4 7 12 -6 18 -31 15 -53 63 -112 114 -137 28
-15 58 -20 117 -20 69 0 83 3 124 29 47 30 80 69 93 110 l7 24 642 -7 c396 -5
642 -11 645 -17 10 -30 72 -97 106 -116 32 -18 56 -23 121 -23 72 0 85 3 127
30 27 17 60 50 75 74 l27 43 95 6 c164 11 240 45 226 104 -9 35 -9 37 0 104 6
49 2 66 -26 138 -34 85 -47 99 -127 140 -67 34 -311 83 -473 95 -19 2 -78 26
-130 54 -124 65 -262 123 -427 179 l-133 44 -420 -2 c-231 -1 -417 -5 -415 -9z
m735 -48 c25 -4 -56 -7 -180 -7 -268 -1 -393 -20 -558 -86 -50 -21 -52 -22
-36 -40 9 -10 39 -33 66 -50 l50 -32 311 -18 c172 -10 364 -23 427 -28 l115
-10 -105 5 c-58 2 -237 8 -399 14 -161 5 -309 13 -330 16 -37 7 -132 66 -164
101 -17 20 -17 21 30 40 164 70 341 101 573 101 85 0 175 -3 200 -6z m1151
-361 c57 -10 117 -24 134 -31 61 -23 88 -70 41 -70 -14 0 -28 -5 -31 -10 -8
-12 -88 -4 -120 13 -35 18 -133 92 -139 105 -7 15 -9 16 115 -7z m-1958 -205
c72 -30 117 -121 97 -196 -21 -79 -88 -130 -170 -130 -109 0 -190 109 -161
217 11 41 60 96 101 112 36 14 96 13 133 -3z m1764 -12 c140 -105 75 -314 -97
-314 -51 0 -88 19 -127 64 -72 81 -40 215 62 262 41 20 129 13 162 -12z"/>
<path d="M505 220 c4 -6 -6 -10 -23 -10 -18 0 -32 -6 -36 -16 -3 -8 -10 -12
-16 -9 -6 3 -7 -1 -4 -9 4 -10 1 -16 -9 -16 -26 0 -29 18 -5 34 12 9 18 16 12
16 -21 0 -64 -56 -64 -83 0 -21 7 -30 27 -38 39 -15 51 -5 56 43 l4 43 1 -47
c1 -34 6 -48 16 -48 21 0 28 16 20 43 -7 21 -7 21 -16 2 -7 -17 -8 -17 -4 4 3
13 1 32 -5 42 -8 15 -5 20 16 25 14 4 28 4 31 1 10 -10 -8 -29 -22 -23 -26 10
2 -39 31 -53 27 -13 30 -12 53 14 l24 28 -39 24 c-41 25 -35 32 7 8 35 -20 40
-19 40 10 0 23 -3 25 -51 25 -31 0 -48 -4 -44 -10z"/>
<path d="M2128 379 c-17 -9 -17 -12 -2 -40 8 -17 13 -33 10 -36 -3 -3 -13 11
-22 30 -14 30 -20 34 -36 26 -10 -5 -18 -14 -18 -19 0 -13 79 -64 87 -57 3 4
13 1 21 -5 11 -10 17 -9 26 4 8 11 17 14 26 8 11 -7 11 -12 2 -23 -15 -17 -6
-27 24 -27 67 0 105 54 65 93 l-22 22 -30 -35 c-16 -19 -29 -30 -29 -25 0 5
14 23 31 41 31 32 31 32 10 44 -22 11 -26 7 -54 -70 -3 -9 -6 -5 -6 10 -2 54
-42 83 -83 59z"/>
</g>
</svg>
