<?xml version="1.0" standalone="no"?>
<!DOCTYPE svg PUBLIC "-//W3C//DTD SVG 20010904//EN"
 "http://www.w3.org/TR/2001/REC-SVG-20010904/DTD/svg10.dtd">
<svg version="1.0" xmlns="http://www.w3.org/2000/svg"
 width="270pt" height="245" viewBox="0 0 1147.000000 72.000000"
 preserveAspectRatio="xMidYMid meet">
<metadata>
Created by potrace 1.16, written by Peter Selinger 2001-2019
</metadata>
<g transform="translate(0.000000,72.000000) scale(0.100000,-0.100000)"
fill="#000000" stroke="none">
<path fill="yellow" d="M186 553 c81 -93 153 -175 160 -183 11 -13 -3 -33 -89 -131 -56 -63
-126 -143 -155 -177 l-54 -62 155 0 156 0 144 167 c79 93 147 173 151 180 6
11 -94 136 -264 331 l-38 42 -156 0 -156 0 146 -167z"/>
<path fill="yellow" d="M906 553 c81 -93 153 -175 160 -183 11 -13 -3 -33 -89 -131 -56 -63
-126 -143 -155 -177 l-54 -62 155 0 156 0 144 167 c79 93 147 173 151 180 6
11 -94 136 -264 331 l-38 42 -156 0 -156 0 146 -167z"/>
<path fill="yellow" d="M1640 538 l160 -182 -23 -25 c-41 -46 -171 -194 -231 -263 l-58 -68
155 0 156 0 151 176 c83 97 150 179 148 184 -2 4 -70 87 -153 184 l-150 176
-158 0 -158 0 161 -182z"/>
<path fill="yellow" d="M2346 553 c81 -93 153 -175 160 -183 11 -13 -3 -33 -89 -131 -56 -63
-126 -143 -155 -177 l-54 -62 156 0 155 0 151 176 c83 97 150 179 148 184 -2
4 -70 87 -153 184 l-150 176 -158 0 -158 0 147 -167z"/>
<path d="M3066 553 c81 -93 153 -175 160 -183 10 -13 0 -29 -67 -105 -44 -50
-114 -129 -155 -177 l-75 -88 155 0 155 0 151 176 c83 97 150 179 148 184 -2
4 -70 87 -153 184 l-150 176 -158 0 -158 0 147 -167z"/>
<path d="M3781 558 c78 -90 150 -172 160 -183 17 -19 15 -23 -62 -110 -44 -50
-114 -129 -155 -177 l-75 -88 155 0 155 0 144 167 c79 93 147 174 151 181 5 8
-47 76 -146 192 l-153 179 -158 1 -158 0 142 -162z"/>
<path d="M4501 558 c78 -90 150 -172 160 -183 17 -19 15 -23 -62 -110 -44 -50
-114 -129 -155 -177 l-75 -88 155 0 155 0 151 176 c83 97 150 179 148 184 -2
4 -70 86 -153 183 l-150 176 -158 1 -158 0 142 -162z"/>
<path d="M5221 558 c78 -90 150 -172 160 -183 17 -19 15 -23 -62 -110 -44 -50
-114 -129 -155 -177 l-75 -88 154 0 155 0 152 176 c83 97 150 179 148 183 -2
5 -70 87 -153 184 l-150 176 -158 1 -158 0 142 -162z"/>
<path fill="yellow" d="M5941 558 c79 -90 150 -172 160 -183 17 -19 15 -23 -62 -110 -44 -50
-114 -129 -155 -177 l-75 -88 154 0 155 0 152 176 c83 97 150 179 148 183 -2
5 -70 87 -153 184 l-150 176 -158 1 -157 0 141 -162z"/>
<path fill="yellow" d="M6661 558 c79 -90 150 -172 160 -183 17 -19 15 -23 -62 -110 -44 -50
-114 -129 -155 -177 l-75 -88 154 0 155 0 144 168 c79 92 148 173 152 180 5 8
-47 76 -146 192 l-153 179 -158 1 -157 0 141 -162z"/>
<path fill="yellow" d="M7381 558 c79 -90 150 -172 160 -183 17 -19 15 -23 -62 -110 -44 -50
-114 -129 -155 -177 l-75 -88 154 0 155 0 144 168 c79 92 148 173 152 180 5 8
-47 76 -146 192 l-153 179 -158 1 -157 0 141 -162z"/>
<path fill="yellow" d="M8106 553 c81 -93 153 -175 160 -183 10 -13 0 -29 -67 -105 -44 -50
-114 -129 -155 -177 l-75 -88 154 0 155 0 152 176 c83 97 150 179 148 183 -2
4 -70 87 -153 184 l-150 177 -158 0 -158 0 147 -167z"/>
<path d="M8826 553 c81 -93 153 -175 160 -183 10 -13 0 -29 -67 -105 -44 -50
-114 -129 -155 -177 l-75 -88 154 0 155 0 152 176 c83 97 150 179 148 183 -2
4 -70 87 -153 184 l-150 177 -158 0 -158 0 147 -167z"/>
<path d="M9541 558 c78 -90 150 -172 160 -183 17 -19 13 -25 -136 -195 l-154
-175 152 -3 152 -3 30 34 c71 78 261 300 268 313 5 9 -39 69 -145 193 l-153
180 -158 1 -158 0 142 -162z"/>
<path d="M10181 648 c35 -39 108 -121 161 -181 l97 -111 -52 -59 c-29 -32 -98
-111 -153 -176 l-102 -116 152 -3 151 -3 30 34 c71 78 261 300 268 313 5 9
-39 69 -145 193 l-153 180 -159 1 -158 0 63 -72z"/>
<path d="M10901 648 c35 -39 108 -121 161 -181 l97 -111 -52 -59 c-29 -32 -98
-111 -153 -176 l-102 -116 152 -3 151 -3 30 34 c180 201 277 321 269 333 -5 7
-74 90 -154 183 l-145 170 -159 1 -158 0 63 -72z"/>
</g>
</svg>
